<svg height="430pt" viewBox="0 -14 430.08 430" width="430pt" xmlns="http://www.w3.org/2000/svg"><path d="m232.105469 293.585938c-1.71875 0-3.417969-.652344-4.710938-1.886719l-48.082031-45.898438h-150.84375c-15.695312 0-28.46875-12.773437-28.46875-28.46875v-188.824219c0-15.695312 12.773438-28.4687495 28.46875-28.4687495h263.917969c15.691406 0 28.464843 12.7734375 28.464843 28.4687495v167.164063c0 3.773437-3.050781 6.828125-6.824218 6.828125-3.773438 0-6.828125-3.054688-6.828125-6.828125v-167.164063c0-8.167968-6.648438-14.816406-14.8125-14.816406h-263.917969c-8.167969 0-14.816406 6.648438-14.816406 14.816406v188.824219c0 8.167969 6.648437 14.816407 14.816406 14.816407h153.578125c1.753906 0 3.449219.671874 4.714844 1.882812l38.519531 36.773438v-31.832032c0-3.773437 3.050781-6.824218 6.824219-6.824218h37.546875c3.773437 0 6.828125 3.050781 6.828125 6.824218 0 3.773438-3.054688 6.828125-6.828125 6.828125h-30.71875v40.960938c0 2.730469-1.625 5.199219-4.140625 6.273437-.867188.371094-1.78125.550782-2.6875.550782zm0 0"/><path d="m423.253906 402.8125h-177.492187c-3.773438 0-6.828125-3.050781-6.828125-6.824219v-22.226562c0-19.089844 21.113281-32.386719 40.058594-32.386719h22.863281c3.773437 0 6.824219 3.050781 6.824219 6.824219 0 3.773437-3.050782 6.828125-6.824219 6.828125h-22.863281c-13.324219 0-26.40625 9.28125-26.40625 18.734375v15.398437h163.839843v-18.328125c0-7.980469-11.386719-15.804687-22.992187-15.804687h-26.261719c-3.773437 0-6.828125-3.054688-6.828125-6.828125 0-3.773438 3.054688-6.824219 6.828125-6.824219h26.261719c17.332031 0 36.644531 12.097656 36.644531 29.457031v25.15625c0 3.773438-3.050781 6.824219-6.824219 6.824219zm0 0"/><path d="m395.953125 297c-.1875 0-.375-.007812-.566406-.019531-3.753907-.316407-6.554688-3.605469-6.246094-7.367188l3.414063-41.667969c-.019532-23.519531-18.207032-43.105468-40.566407-43.105468h-34.960937c-22.359375 0-40.546875 19.585937-40.546875 43.667968l3.390625 41.105469c.308594 3.761719-2.492188 7.054688-6.246094 7.367188-3.84375.351562-7.058594-2.488281-7.363281-6.246094l-3.414063-41.667969c-.019531-32.167968 24.292969-57.878906 54.179688-57.878906h34.960937c29.886719 0 54.199219 25.710938 54.199219 57.320312l-3.433594 42.226563c-.292968 3.566406-3.28125 6.265625-6.800781 6.265625zm0 0"/><path d="m334.507812 361.851562c-19.703124 0-37.574218-7.285156-47.816406-19.5-12.425781-14.8125-20.453125-35.40625-20.453125-52.464843v-27.511719c0-11.609375.261719-18.320312 5.667969-21.300781 4.8125-2.664063 9.371094.199219 13.386719 2.71875 5.339843 3.367187 13.40625 8.449219 26.578125 8.449219 10.632812 0 23.421875-3.246094 35.789062-6.394532 19.992188-5.082031 37.238282-9.464844 47.660156-1.351562 4.945313 3.84375 7.453126 9.859375 7.453126 17.878906v27.511719c0 17.0625-8.027344 37.652343-20.445313 52.46875-10.246094 12.210937-28.121094 19.496093-47.820313 19.496093zm-54.535156-105.285156c-.050781 1.527344-.078125 3.429688-.078125 5.808594v27.511719c0 13.828125 6.929688 31.386719 17.257813 43.695312 7.5625 9.019531 21.878906 14.617188 37.355468 14.617188 15.472657 0 29.792969-5.597657 37.359376-14.617188 10.320312-12.308593 17.253906-29.867187 17.253906-43.695312v-27.511719c0-3.589844-.734375-5.980469-2.179688-7.101562-5.132812-4.019532-21.496094.148437-35.921875 3.804687-13.171875 3.347656-26.804687 6.816406-39.148437 6.816406-15.363282 0-25.710938-5.527343-31.898438-9.328125zm0 0"/><path d="m102.398438 75.132812h27.308593v102.402344h-27.308593zm0 0"/><path d="m232.105469 177.535156h-27.304688v-69.375c0-3.152344-2.902343-5.71875-6.460937-5.71875h-27.671875v75.09375h-27.308594v-102.402344h54.980469c18.621094 0 33.765625 14.8125 33.765625 33.027344zm0 0"/><path d="m102.398438 41h27.308593v27.308594h-27.308593zm0 0"/></svg>